<svg width="89" height="10" viewBox="0 0 89 10" fill="none" xmlns="http://www.w3.org/2000/svg">
<path d="M1.656 9C1.424 9 1.24 8.936 1.104 8.808C0.976 8.68 0.912 8.5 0.912 8.268V1.272C0.912 1.04 0.976 0.86 1.104 0.732C1.24 0.604 1.424 0.539999 1.656 0.539999H4.032C5.416 0.539999 6.488 0.911999 7.248 1.656C8.016 2.392 8.4 3.428 8.4 4.764C8.4 6.108 8.016 7.152 7.248 7.896C6.488 8.632 5.416 9 4.032 9H1.656ZM3.936 7.74C5.88 7.74 6.852 6.748 6.852 4.764C6.852 2.788 5.88 1.8 3.936 1.8H2.46V7.74H3.936ZM10.7029 9C10.4709 9 10.2869 8.936 10.1509 8.808C10.0229 8.68 9.95888 8.5 9.95888 8.268V1.272C9.95888 1.04 10.0229 0.86 10.1509 0.732C10.2869 0.604 10.4709 0.539999 10.7029 0.539999H15.0349C15.2669 0.539999 15.4469 0.592 15.5749 0.696C15.7029 0.8 15.7669 0.948 15.7669 1.14C15.7669 1.34 15.7029 1.496 15.5749 1.608C15.4469 1.712 15.2669 1.764 15.0349 1.764H11.4709V4.092H14.7949C15.0269 4.092 15.2069 4.144 15.3349 4.248C15.4629 4.352 15.5269 4.504 15.5269 4.704C15.5269 4.896 15.4629 5.044 15.3349 5.148C15.2069 5.252 15.0269 5.304 14.7949 5.304H11.4709V7.776H15.0349C15.2669 7.776 15.4469 7.832 15.5749 7.944C15.7029 8.048 15.7669 8.2 15.7669 8.4C15.7669 8.592 15.7029 8.74 15.5749 8.844C15.4469 8.948 15.2669 9 15.0349 9H10.7029ZM23.1813 0.875999C23.3093 0.604 23.5213 0.468 23.8173 0.468C24.0173 0.468 24.1973 0.532 24.3573 0.659999C24.5173 0.788 24.5973 0.948 24.5973 1.14C24.5973 1.228 24.5733 1.328 24.5253 1.44L21.2013 8.592C21.1293 8.744 21.0173 8.864 20.8653 8.952C20.7213 9.032 20.5653 9.072 20.3973 9.072C20.2293 9.072 20.0693 9.032 19.9173 8.952C19.7733 8.864 19.6653 8.744 19.5933 8.592L16.2813 1.44C16.2333 1.328 16.2093 1.232 16.2093 1.152C16.2093 0.952 16.2893 0.788 16.4493 0.659999C16.6173 0.532 16.8053 0.468 17.0133 0.468C17.1493 0.468 17.2733 0.504 17.3853 0.576C17.5053 0.64 17.5973 0.74 17.6613 0.875999L20.4213 7.008L23.1813 0.875999ZM26.3357 9C26.1037 9 25.9197 8.936 25.7837 8.808C25.6557 8.68 25.5917 8.5 25.5917 8.268V1.272C25.5917 1.04 25.6557 0.86 25.7837 0.732C25.9197 0.604 26.1037 0.539999 26.3357 0.539999H30.6677C30.8997 0.539999 31.0797 0.592 31.2077 0.696C31.3357 0.8 31.3997 0.948 31.3997 1.14C31.3997 1.34 31.3357 1.496 31.2077 1.608C31.0797 1.712 30.8997 1.764 30.6677 1.764H27.1037V4.092H30.4277C30.6597 4.092 30.8397 4.144 30.9677 4.248C31.0957 4.352 31.1597 4.504 31.1597 4.704C31.1597 4.896 31.0957 5.044 30.9677 5.148C30.8397 5.252 30.6597 5.304 30.4277 5.304H27.1037V7.776H30.6677C30.8997 7.776 31.0797 7.832 31.2077 7.944C31.3357 8.048 31.3997 8.2 31.3997 8.4C31.3997 8.592 31.3357 8.74 31.2077 8.844C31.0797 8.948 30.8997 9 30.6677 9H26.3357ZM33.3901 9C33.1581 9 32.9781 8.936 32.8501 8.808C32.7221 8.68 32.6581 8.504 32.6581 8.28V1.248C32.6581 1.016 32.7261 0.832 32.8621 0.696C33.0061 0.552 33.1941 0.48 33.4261 0.48C33.6661 0.48 33.8541 0.552 33.9901 0.696C34.1341 0.832 34.2061 1.016 34.2061 1.248V7.728H37.5781C38.0581 7.728 38.2981 7.94 38.2981 8.364C38.2981 8.788 38.0581 9 37.5781 9H33.3901ZM42.6253 9.108C41.8013 9.108 41.0853 8.932 40.4773 8.58C39.8773 8.228 39.4133 7.724 39.0853 7.068C38.7573 6.412 38.5933 5.644 38.5933 4.764C38.5933 3.884 38.7533 3.12 39.0733 2.472C39.4013 1.816 39.8693 1.312 40.4773 0.96C41.0853 0.608 41.8013 0.431999 42.6253 0.431999C43.4493 0.431999 44.1613 0.608 44.7613 0.96C45.3693 1.312 45.8333 1.816 46.1533 2.472C46.4813 3.12 46.6453 3.884 46.6453 4.764C46.6453 5.644 46.4813 6.412 46.1533 7.068C45.8253 7.724 45.3573 8.228 44.7493 8.58C44.1493 8.932 43.4413 9.108 42.6253 9.108ZM42.6253 7.872C43.4013 7.872 44.0053 7.604 44.4373 7.068C44.8773 6.532 45.0973 5.764 45.0973 4.764C45.0973 3.764 44.8773 3 44.4373 2.472C44.0053 1.936 43.4013 1.668 42.6253 1.668C41.8413 1.668 41.2293 1.936 40.7893 2.472C40.3573 3 40.1413 3.764 40.1413 4.764C40.1413 5.764 40.3573 6.532 40.7893 7.068C41.2293 7.604 41.8413 7.872 42.6253 7.872ZM48.9769 9.072C48.7449 9.072 48.5569 9.004 48.4129 8.868C48.2769 8.724 48.2089 8.532 48.2089 8.292V1.272C48.2089 1.04 48.2729 0.86 48.4009 0.732C48.5369 0.604 48.7209 0.539999 48.9529 0.539999H51.9049C52.8089 0.539999 53.5129 0.768 54.0169 1.224C54.5209 1.672 54.7729 2.304 54.7729 3.12C54.7729 3.936 54.5209 4.572 54.0169 5.028C53.5129 5.484 52.8089 5.712 51.9049 5.712H49.7569V8.292C49.7569 8.532 49.6849 8.724 49.5409 8.868C49.4049 9.004 49.2169 9.072 48.9769 9.072ZM51.7129 4.524C52.7769 4.524 53.3089 4.06 53.3089 3.132C53.3089 2.204 52.7769 1.74 51.7129 1.74H49.7569V4.524H51.7129ZM63.6428 0.48C63.8668 0.48 64.0468 0.552 64.1828 0.696C64.3188 0.832 64.3868 1.016 64.3868 1.248V8.352C64.3868 8.576 64.3228 8.752 64.1948 8.88C64.0668 9.008 63.8988 9.072 63.6908 9.072C63.4828 9.072 63.3188 9.008 63.1988 8.88C63.0788 8.752 63.0188 8.576 63.0188 8.352V3.408L60.9788 7.272C60.8828 7.448 60.7788 7.58 60.6668 7.668C60.5548 7.748 60.4228 7.788 60.2708 7.788C60.1188 7.788 59.9868 7.748 59.8748 7.668C59.7628 7.588 59.6588 7.456 59.5628 7.272L57.5108 3.468V8.352C57.5108 8.568 57.4468 8.744 57.3188 8.88C57.1988 9.008 57.0348 9.072 56.8268 9.072C56.6188 9.072 56.4548 9.008 56.3348 8.88C56.2148 8.752 56.1548 8.576 56.1548 8.352V1.248C56.1548 1.016 56.2188 0.832 56.3468 0.696C56.4828 0.552 56.6628 0.48 56.8868 0.48C57.1988 0.48 57.4428 0.651999 57.6188 0.995999L60.2828 6.072L62.9348 0.995999C63.1108 0.651999 63.3468 0.48 63.6428 0.48ZM66.9646 9C66.7326 9 66.5486 8.936 66.4126 8.808C66.2846 8.68 66.2206 8.5 66.2206 8.268V1.272C66.2206 1.04 66.2846 0.86 66.4126 0.732C66.5486 0.604 66.7326 0.539999 66.9646 0.539999H71.2966C71.5286 0.539999 71.7086 0.592 71.8366 0.696C71.9646 0.8 72.0286 0.948 72.0286 1.14C72.0286 1.34 71.9646 1.496 71.8366 1.608C71.7086 1.712 71.5286 1.764 71.2966 1.764H67.7326V4.092H71.0566C71.2886 4.092 71.4686 4.144 71.5966 4.248C71.7246 4.352 71.7886 4.504 71.7886 4.704C71.7886 4.896 71.7246 5.044 71.5966 5.148C71.4686 5.252 71.2886 5.304 71.0566 5.304H67.7326V7.776H71.2966C71.5286 7.776 71.7086 7.832 71.8366 7.944C71.9646 8.048 72.0286 8.2 72.0286 8.4C72.0286 8.592 71.9646 8.74 71.8366 8.844C71.7086 8.948 71.5286 9 71.2966 9H66.9646ZM79.695 0.48C79.919 0.48 80.095 0.552 80.223 0.696C80.359 0.832 80.427 1.016 80.427 1.248V8.292C80.427 8.524 80.359 8.712 80.223 8.856C80.087 9 79.911 9.072 79.695 9.072C79.439 9.072 79.243 8.98 79.107 8.796L74.727 3.096V8.292C74.727 8.524 74.663 8.712 74.535 8.856C74.407 9 74.231 9.072 74.007 9.072C73.783 9.072 73.607 9 73.479 8.856C73.351 8.712 73.287 8.524 73.287 8.292V1.248C73.287 1.016 73.355 0.832 73.491 0.696C73.627 0.552 73.807 0.48 74.031 0.48C74.279 0.48 74.471 0.572 74.607 0.756L78.975 6.432V1.248C78.975 1.016 79.039 0.832 79.167 0.696C79.303 0.552 79.479 0.48 79.695 0.48ZM85.0238 9.06C84.7838 9.06 84.5918 8.992 84.4478 8.856C84.3118 8.712 84.2438 8.524 84.2438 8.292V1.812H82.0598C81.5798 1.812 81.3398 1.6 81.3398 1.176C81.3398 0.752 81.5798 0.539999 82.0598 0.539999H87.9758C88.4558 0.539999 88.6958 0.752 88.6958 1.176C88.6958 1.6 88.4558 1.812 87.9758 1.812H85.7918V8.292C85.7918 8.524 85.7198 8.712 85.5758 8.856C85.4398 8.992 85.2558 9.06 85.0238 9.06Z" fill="#0090E1"/>
</svg>
